<?xml version="1.0" encoding="UTF-8"?>
<svg id="_Слой_1" data-name="Слой 1" xmlns="http://www.w3.org/2000/svg" viewBox="0 0 1944.65 1239.32">
  <defs>
    <style>
      .cls-1 {
        stroke-width: 0px;
      }
    </style>
  </defs>
  <g>
    <path class="cls-1" d="m224.01,466.95c0-19.29-15.78-35.06-35.06-35.06H35.06c-19.29,0-35.06,15.78-35.06,35.06s15.78,35.06,35.06,35.06h153.88c19.29,0,35.06-15.78,35.06-35.06Z"/>
    <path class="cls-1" d="m1909.58,431.88h-213.06v-11.32c0-19.29-15.78-35.06-35.06-35.06s-35.06,15.78-35.06,35.06v162.44h-257.54c-21.02-42.24-64.52-71.4-114.82-71.4h-552.2c-50.3,0-93.8,29.16-114.82,71.4h-268.77v-80.99h213.06c19.29,0,35.06-15.78,35.06-35.06s-15.78-35.06-35.06-35.06h-213.06v-11.32c0-19.29-15.78-35.06-35.06-35.06s-35.06,15.78-35.06,35.06v162.89c-66.53,4.66-119.27,60.14-119.27,127.84s57.55,128.29,128.29,128.29h368.69c15.83,11.63,33.88,20.95,52.16,27.55l-90.94,36.2c-14.36,5.72-23.78,19.61-23.78,35.06v196.98c0,20.84,16.9,37.73,37.73,37.73s37.73-16.9,37.73-37.73v-171.39l88.91-35.39c-.01.77-.12,1.52-.12,2.29v140.44c0,70.74,57.55,128.29,128.29,128.29h33.81c21.88,24.31,53.47,39.7,88.67,39.7s66.79-15.4,88.67-39.7h51.59c70.74,0,128.29-57.55,128.29-128.29v-140.44c0-.26-.04-.51-.04-.77l85.08,33.87v171.39c0,20.84,16.9,37.73,37.73,37.73s37.73-16.9,37.73-37.73v-196.98c0-15.45-9.42-29.34-23.78-35.06l-97.3-38.73c15.7-6.38,31.04-14.8,44.69-25.02h368.49c70.74,0,128.29-57.55,128.29-128.29s-57.55-128.29-128.29-128.29h-2.95v-80.99h213.06c19.29,0,35.06-15.78,35.06-35.06s-15.78-35.06-35.06-35.06ZM257.14,764.12c-29.13,0-52.83-23.7-52.83-52.83s23.7-52.83,52.83-52.83h316.41v91.86c0,4.7.38,9.29,1.08,13.79h-317.49Zm721.17,399.73c-24.25,0-43.97-19.73-43.97-43.97s19.73-43.97,43.97-43.97,43.97,19.73,43.97,43.97-19.73,43.97-43.97,43.97Zm193.08-92.53c0,29.13-23.7,52.83-52.83,52.83h-21.04c.05-1.43.22-2.83.22-4.27,0-65.86-53.58-119.44-119.43-119.44s-119.44,53.58-119.44,119.44c0,1.44.17,2.84.22,4.27h-3.26c-29.13,0-52.83-23.7-52.83-52.83v-140.44c0-26.66,19.87-48.71,45.56-52.27h277.27c25.69,3.56,45.56,25.61,45.56,52.27v140.44Zm135.48-320.99c0,21.72-50.61,52.83-85.96,52.83h-91.29c-3.65-.31-7.32-.56-11.05-.56h-262.74c-3.73,0-7.4.25-11.05.56h-106.86c-38.37,0-88.9-33.23-88.9-52.83v-110.44c0-29.13,23.7-52.83,52.83-52.83h552.2c29.13,0,52.83,23.7,52.83,52.83v110.44Zm392.61-91.86c29.13,0,52.83,23.7,52.83,52.83s-23.7,52.83-52.83,52.83h-318.21c.69-4.5,1.06-9.09,1.06-13.79v-91.86h317.14Z"/>
    <path class="cls-1" d="m1413.34,502.01h153.88c19.29,0,35.06-15.78,35.06-35.06s-15.78-35.06-35.06-35.06h-153.88c-19.29,0-35.06,15.78-35.06,35.06s15.78,35.06,35.06,35.06Z"/>
    <path class="cls-1" d="m1037.85,678.16h-120.01c-19.29,0-35.06,15.78-35.06,35.06s15.78,35.06,35.06,35.06h120.01c19.29,0,35.06-15.78,35.06-35.06s-15.78-35.06-35.06-35.06Z"/>
  </g>
  <g>
    <path class="cls-1" d="m733.87,122.44c2.3,13.21,3.6,24.82,4.04,36.2,1.87,48.32-8.21,96.8-8.32,97.28-1.2,5.71.99,11.6,5.63,15.13,4.64,3.53,10.9,4.08,16.08,1.39,1.71-.89,32.91-17.32,54.75-45.24,2.86,5.14,6.35,10.48,10.81,16.34,10.61,13.91,24.94,27.87,34.06,33.19,2.34,1.36,4.96,2.06,7.6,2.06,1.86,0,3.72-.34,5.49-1.03,4.29-1.68,7.58-5.22,8.94-9.62.5-1.64,11.51-39.2.09-145.69h23.37c10.42,0,18.87-8.45,18.87-18.87s-8.45-18.87-18.87-18.87h-180.14c-10.42,0-18.87,8.45-18.87,18.87s8.45,18.87,18.87,18.87h17.58Zm113.49,110.66c-2.22-2.51-4.41-5.17-6.48-7.87-10.18-13.35-13.66-22.85-18.18-36.92-1.98-6.16-7.68-10.38-14.15-10.48h-.22c-6.39,0-12.09,4.02-14.23,10.05-5.51,15.55-17.68,28.88-29.34,38.8,2.33-19.15,4.29-43.97,3.31-69.21-.44-11.21-1.66-22.59-3.65-35.03h78.26c5.96,54.1,5.97,89.49,4.67,110.66Z"/>
    <path class="cls-1" d="m1347.54,169.41h-13.75V18.87c0-10.42-8.45-18.87-18.87-18.87h-603.37c-57.11,0-103.57,46.46-103.57,103.57,0,42.97,26.32,79.9,63.67,95.56-19.61,19.21-31.05,45.63-31.05,73.86s11.92,55.04,31.08,73.84c-37.37,15.65-63.69,52.58-63.69,95.56,0,57.11,46.46,103.57,103.57,103.57h603.37c10.42,0,18.87-8.45,18.87-18.87v-150.54h13.75c10.42,0,18.87-8.45,18.87-18.87v-169.41c0-10.42-8.45-18.87-18.87-18.87Zm-701.82-65.84c0-36.3,29.53-65.84,65.84-65.84h584.51v131.68h-393.2c-10.42,0-18.87,8.45-18.87,18.87s8.45,18.87,18.87,18.87h425.81v131.68h-584.5c-36.3,0-65.84-29.54-65.84-65.84,0-24.41,13.52-46.73,35.29-58.25,2.63-1.4,4.79-2.94,6.61-4.76,6.14-3.44,9.76-10.07,9.54-17.03.38-1.5.65-3.04.65-4.66,0-10.42-8.45-18.87-18.87-18.87-36.3,0-65.84-29.53-65.84-65.84Zm650.34,404.66h-584.51c-36.3,0-65.84-29.53-65.84-65.84s29.53-65.84,65.84-65.84h584.51v131.68Z"/>
  </g>
</svg>