<svg width="189" height="42" viewBox="0 0 189 42" fill="none" xmlns="http://www.w3.org/2000/svg">
<g clip-path="url(#clip0_1_5304)">
<path d="M179.5 21.8H175.6V14.7H179.5C182.5 14.7 184 16 184 18.2C184 20.4 182.5 21.8 179.5 21.8ZM179.8 10.8H170.7V31.1H175.5V25.5H179.7C185.3 25.5 188.8 22.7 188.8 18.1C188.9 13.6 185.4 10.8 179.8 10.8ZM155.9 27.4V22.7H165.6V19H155.9V14.6H166.9V10.8H151.1V31.1H167.3V27.3H155.9V27.4ZM141.7 10.8V18.9H132.2V10.9H127.4V31.2H132.2V22.8H141.7V31.2H146.5V10.8H141.7ZM112.8 27.5C109.1 27.5 106.3 24.9 106.3 21C106.3 17.1 109.1 14.5 112.8 14.5C116.5 14.5 119.3 17.1 119.3 21C119.3 24.9 116.5 27.5 112.8 27.5ZM112.8 31.5C119.4 31.5 124.2 27 124.2 21C124.2 15 119.3 10.5 112.8 10.5C106.2 10.5 101.4 15 101.4 21C101.3 27 106.2 31.5 112.8 31.5ZM78.8998 31.2H83.4998L93.4998 18V31.2H98.2998V10.8H93.7998L83.7998 24V10.8H78.9998L78.8998 31.2ZM55.2998 10.8V31.1H60.0998V14.6H69.4998V31.1H74.2998V10.8H55.2998Z" fill="#2C2D34"/>
<path d="M30.1 0H11.8C5.3 0 0 5.3 0 11.8V30.2C0 36.7 5.3 42 11.8 42H30.2C36.7 42 41.9 36.7 41.9 30.2V11.8C41.9 5.3 36.7 0 30.1 0ZM21 5.9L25 13.3H17L21 5.9ZM12 30.9H7.3L12.6 21.4H5.2L4 17.3H19.3L12 30.9ZM36.8 21.4H29.4L34.6 30.9H29.9L22.5 17.4H37.8L36.8 21.4Z" fill="#F44D0B"/>
</g>
<defs>
<clipPath id="clip0_1_5304">
<rect width="188.8" height="42" fill="white"/>
</clipPath>
</defs>
</svg>
