<svg width="208" height="54" viewBox="0 0 208 54" fill="none" xmlns="http://www.w3.org/2000/svg">
<path d="M13.8557 0.759766H3.5543H0.625V3.67433V13.9239H3.5543V5.76311L9.31526 11.4465L11.4146 9.40632L5.65363 3.67433H13.8557V0.759766Z" fill="#66B330"/>
<path d="M40.9023 0.759766H51.2037H54.133V3.67433V13.9239H51.2037V5.76311L45.4428 11.4465L43.3434 9.40632L49.1044 3.67433H40.9023V0.759766Z" fill="#66B330"/>
<path d="M13.8557 54.0001H3.5543H0.625V51.0369V40.8359H3.5543V48.9967L9.31526 43.2647L11.4146 45.3049L5.65363 51.0369H13.8557V54.0001Z" fill="#66B330"/>
<path d="M40.9023 54.0001H51.2037H54.133V51.0369V40.8359H51.2037V48.9967L45.4428 43.2647L43.3434 45.3049L49.1044 51.0369H40.9023V54.0001Z" fill="#66B330"/>
<path d="M70.7812 17.7617H74.1011V26.0197L80.5456 17.7617H84.6954L77.421 26.7969L85.086 36.1235H80.9361L74.1011 27.6227V36.1235H70.7812V17.7617Z" fill="#0054A6"/>
<path d="M86.5 22.2305H89.6734V29.5655L88.6482 32.5772H89.0387L90.3081 30.3427L94.8485 22.2305H98.4125V36.1233H95.2391V28.7883L96.3132 25.7765H95.8738L94.6532 28.011L90.064 36.1233H86.5V22.2305Z" fill="#0054A6"/>
<path d="M107.444 33.5003C108.567 33.5003 109.446 33.1602 110.13 32.4802C110.813 31.8001 111.155 30.8286 111.155 29.5656C111.155 28.3026 110.813 27.3311 110.13 26.651C109.446 25.971 108.567 25.6309 107.444 25.6309C106.321 25.6309 105.443 25.971 104.759 26.651C104.076 27.3311 103.734 28.3026 103.734 29.5656C103.734 30.8286 104.076 31.8001 104.759 32.4802C105.443 33.1602 106.321 33.5003 107.444 33.5003ZM107.444 36.4148C106.419 36.4148 105.492 36.2691 104.662 35.9291C103.832 35.5891 103.099 35.0547 102.513 34.4232C101.928 33.7432 101.439 32.9174 101.098 31.8973C100.756 30.8772 100.609 29.7599 100.609 28.4484C100.609 24.9023 101.244 22.2792 102.562 20.5304C103.88 18.7817 105.687 17.9073 107.981 17.9073C109.251 17.9073 110.325 17.8102 111.155 17.6644C112.034 17.4701 112.717 17.2758 113.254 16.9844V19.8504C112.815 20.0933 112.18 20.3361 111.35 20.5304C110.569 20.7247 109.544 20.7733 108.372 20.7733C107.689 20.7733 107.103 20.8705 106.566 21.0648C106.029 21.2591 105.589 21.5505 105.15 21.9391C104.759 22.2792 104.417 22.6678 104.125 23.1536C103.88 23.5907 103.685 24.0765 103.587 24.5623H103.734C104.271 24.1251 104.857 23.7365 105.589 23.445C106.273 23.1535 107.151 23.0078 108.226 23.0078C109.104 23.0078 109.885 23.1536 110.618 23.4936C111.35 23.785 111.985 24.2708 112.522 24.8537C113.059 25.4366 113.498 26.1167 113.791 26.9425C114.084 27.7683 114.279 28.6912 114.279 29.7113C114.279 30.6829 114.133 31.6058 113.791 32.4316C113.449 33.2574 113.01 33.986 112.375 34.569C111.79 35.1519 111.057 35.6376 110.227 35.9777C109.397 36.2205 108.47 36.4148 107.444 36.4148Z" fill="#0054A6"/>
<path d="M126.092 28.012C125.995 27.089 125.604 26.3118 125.018 25.7775C124.432 25.1946 123.602 24.9031 122.577 24.9031C121.552 24.9031 120.722 25.1946 120.136 25.7775C119.55 26.3604 119.209 27.089 119.062 28.012H126.092ZM122.724 36.4157C121.698 36.4157 120.771 36.2699 119.941 35.9299C119.111 35.5899 118.379 35.1041 117.793 34.5212C117.207 33.8897 116.767 33.1611 116.426 32.2867C116.133 31.4123 115.938 30.3922 115.938 29.2264C115.938 28.0606 116.084 27.0405 116.426 26.1661C116.719 25.2917 117.207 24.5145 117.793 23.9316C118.379 23.3001 119.111 22.8629 119.941 22.5229C120.771 22.1828 121.698 22.0371 122.724 22.0371C123.7 22.0371 124.579 22.1828 125.36 22.5229C126.141 22.8143 126.825 23.3001 127.411 23.883C127.996 24.4659 128.436 25.1946 128.729 26.0204C129.022 26.8461 129.217 27.8177 129.217 28.8378C129.217 29.0321 129.217 29.2264 129.168 29.3721C129.168 29.5664 129.119 29.7121 129.119 29.8579C129.119 30.0036 129.07 30.1493 129.07 30.2951H119.062C119.209 31.218 119.55 31.9952 120.136 32.6267C120.722 33.2582 121.552 33.5497 122.577 33.5497C123.407 33.5497 124.091 33.4039 124.53 33.0639C125.018 32.7239 125.311 32.3838 125.507 31.9466H128.631C128.533 32.4324 128.289 32.9668 128.045 33.4525C127.801 33.9868 127.411 34.4726 126.971 34.9098C126.483 35.347 125.897 35.687 125.214 35.9785C124.53 36.2699 123.7 36.4157 122.724 36.4157Z" fill="#0054A6"/>
<path d="M155.727 33.2573V25.0965H150.698V27.8653C150.698 28.6425 150.65 29.274 150.601 29.8569C150.503 30.4398 150.406 30.9256 150.308 31.3628C150.161 31.8 150.015 32.14 149.868 32.48C149.722 32.7715 149.576 33.063 149.429 33.2573H155.727ZM144.938 33.2573H146.207C146.353 33.0144 146.549 32.7229 146.646 32.4315C146.793 32.14 146.939 31.8 146.988 31.3628C147.086 30.9256 147.183 30.4398 147.232 29.9055C147.281 29.3226 147.33 28.6911 147.33 27.8653V22.2305H158.949V33.2573H160.414V39.2807H157.289V36.1233H148.16V39.2807H144.986V33.2573H144.938Z" fill="#0054A6"/>
<path d="M168.958 33.598C169.398 33.598 169.837 33.5008 170.276 33.3065C170.716 33.1122 171.057 32.8208 171.35 32.4807C171.692 32.0921 171.936 31.6549 172.083 31.072C172.278 30.5377 172.376 29.8576 172.376 29.129C172.376 28.4003 172.278 27.7688 172.083 27.1859C171.887 26.6516 171.643 26.1658 171.35 25.8258C171.057 25.4372 170.667 25.1943 170.276 25C169.837 24.8057 169.398 24.7085 168.958 24.7085C167.933 24.7085 167.103 25.0972 166.468 25.8258C165.834 26.5544 165.541 27.6717 165.541 29.1776C165.541 30.6834 165.834 31.8007 166.468 32.5293C167.103 33.2579 167.933 33.598 168.958 33.598ZM162.465 22.2312H165.199L165.492 23.6884H165.638C165.736 23.5913 165.834 23.4456 166.078 23.2513C166.322 23.057 166.566 22.8627 166.908 22.6684C167.249 22.474 167.64 22.3283 168.128 22.1826C168.568 22.0369 169.056 21.9883 169.593 21.9883C170.472 21.9883 171.253 22.134 171.985 22.4255C172.717 22.7169 173.352 23.1541 173.889 23.7856C174.426 24.3685 174.866 25.1457 175.158 26.0201C175.451 26.9431 175.598 28.0117 175.598 29.1776C175.598 30.392 175.451 31.4606 175.158 32.335C174.866 33.258 174.426 33.9866 173.889 34.5695C173.352 35.1524 172.717 35.5896 171.985 35.9296C171.253 36.2211 170.472 36.3668 169.593 36.3668C169.056 36.3668 168.616 36.3182 168.177 36.1725C167.786 36.0268 167.396 35.9296 167.103 35.7353C166.81 35.541 166.517 35.3953 166.322 35.201C166.126 35.0067 165.98 34.9095 165.834 34.7638H165.638V41.3216H162.465V22.2312Z" fill="#0054A6"/>
<path d="M183.997 33.5011C185.071 33.5011 185.901 33.1611 186.536 32.4324C187.219 31.7038 187.561 30.6351 187.561 29.1778C187.561 27.7205 187.219 26.6518 186.536 25.9232C185.901 25.1946 185.022 24.8545 183.997 24.8545C182.923 24.8545 182.093 25.1946 181.41 25.9232C180.775 26.6518 180.433 27.7205 180.433 29.1778C180.433 30.6351 180.775 31.7038 181.41 32.4324C182.044 33.1611 182.923 33.5011 183.997 33.5011ZM183.997 36.4157C183.021 36.4157 182.093 36.2699 181.263 35.9299C180.433 35.5899 179.701 35.1041 179.115 34.5212C178.529 33.8897 178.041 33.1125 177.699 32.2381C177.406 31.3637 177.211 30.3436 177.211 29.2264C177.211 28.1091 177.357 27.089 177.699 26.2147C178.041 25.3403 178.48 24.5631 179.115 23.9802C179.701 23.3487 180.433 22.8629 181.263 22.5229C182.093 22.1828 183.021 22.0371 183.997 22.0371C184.974 22.0371 185.901 22.1828 186.731 22.5229C187.561 22.8629 188.245 23.3487 188.831 23.9802C189.416 24.6116 189.905 25.3403 190.246 26.2147C190.588 27.089 190.735 28.1091 190.735 29.2264C190.735 30.3436 190.588 31.3637 190.246 32.2381C189.905 33.1125 189.465 33.8897 188.831 34.5212C188.245 35.1527 187.561 35.5899 186.731 35.9299C185.852 36.2213 184.974 36.4157 183.997 36.4157Z" fill="#0054A6"/>
<path d="M192.785 22.2305H196.398L199.815 29.3226H200.108L203.477 22.2305H207.09V36.1233H203.916V30.0027L205.088 26.3109H204.649L201.231 33.743H198.693L195.226 26.3109H194.787L195.959 30.0027V36.1233H192.785V22.2305Z" fill="#0054A6"/>
<path d="M137.372 33.598C137.812 33.598 138.251 33.5008 138.69 33.3065C139.13 33.1122 139.472 32.8208 139.764 32.4807C140.106 32.0921 140.35 31.6549 140.497 31.072C140.692 30.5377 140.79 29.8576 140.79 29.129C140.79 28.4003 140.692 27.7688 140.497 27.1859C140.301 26.6516 140.057 26.1658 139.764 25.8258C139.472 25.4372 139.081 25.1943 138.69 25C138.251 24.8057 137.812 24.7085 137.372 24.7085C136.347 24.7085 135.517 25.0972 134.882 25.8258C134.248 26.5544 133.955 27.6717 133.955 29.1776C133.955 30.6834 134.248 31.8007 134.882 32.5293C135.517 33.2579 136.347 33.598 137.372 33.598ZM130.879 22.2312H133.613L133.906 23.6884H134.052C134.15 23.5913 134.248 23.4456 134.492 23.2513C134.736 23.057 134.98 22.8627 135.322 22.6684C135.663 22.474 136.054 22.3283 136.542 22.1826C136.982 22.0369 137.47 21.9883 138.007 21.9883C138.886 21.9883 139.667 22.134 140.399 22.4255C141.131 22.7169 141.766 23.1541 142.303 23.7856C142.84 24.3685 143.28 25.1457 143.573 26.0201C143.865 26.9431 144.012 28.0117 144.012 29.1776C144.012 30.392 143.865 31.4606 143.573 32.335C143.28 33.258 142.84 33.9866 142.303 34.5695C141.766 35.1524 141.131 35.5896 140.399 35.9296C139.667 36.2211 138.886 36.3668 138.007 36.3668C137.47 36.3668 137.03 36.3182 136.591 36.1725C136.2 36.0268 135.81 35.9296 135.517 35.7353C135.224 35.541 134.931 35.3953 134.736 35.201C134.541 35.0067 134.394 34.9095 134.248 34.7638H134.101V41.3216H130.928V22.2312H130.879Z" fill="#0054A6"/>
<path d="M11.4585 34.2786C11.5073 33.9386 11.5073 33.6471 11.5561 33.4042C11.5561 33.3557 11.5073 33.3557 11.5073 33.3071C11.2632 33.6957 10.5797 33.9386 9.74974 33.9386C8.77331 33.9386 7.94334 33.55 7.89452 33.0642C7.8457 33.0642 7.8457 33.0156 7.79688 33.0156C7.94334 34.4243 8.62684 36.8531 8.91977 37.8732C9.06624 38.359 9.16388 38.8448 9.8962 38.8448C10.9215 38.8448 10.9215 38.359 10.9703 37.8732C11.0679 37.3875 11.1167 36.5131 11.2632 35.6387L13.1184 34.8129C12.7279 34.6186 12.1908 34.3272 11.9467 34.0357L11.4585 34.2786Z" fill="#0054A6"/>
<path d="M21.4667 24.6595C21.4186 24.516 21.4667 24.6595 21.4667 24.6595V24.6595Z" fill="#0054A6"/>
<path d="M45.0484 33.9876C44.2184 33.9876 43.4861 33.6962 43.2908 33.3562C43.2908 33.4047 43.242 33.4047 43.242 33.4533C43.242 33.6962 43.2908 33.9877 43.3396 34.3277L42.8514 34.1334C42.5585 34.3763 42.0214 34.7163 41.6797 34.9106L43.5349 35.7364C43.6814 36.6593 43.779 37.4851 43.8278 37.9709C43.9255 38.4567 43.8767 38.9424 44.9019 38.9424C45.6342 38.9424 45.7319 38.4567 45.8783 37.9709C46.1713 36.9994 46.9036 34.522 47.0012 33.1133C46.9524 33.1133 46.9524 33.1619 46.9036 33.1619C46.8548 33.599 46.0248 33.9876 45.0484 33.9876Z" fill="#0054A6"/>
<path d="M54.961 27.1374C54.7169 27.0403 54.4728 26.9917 54.2287 27.0403C52.3734 27.7203 50.4694 28.4004 48.6142 29.0805C48.1259 29.2748 47.6377 29.5176 47.1983 29.8577C46.9542 30.052 46.7101 30.2949 46.5148 30.5378C46.466 30.5863 46.4172 30.6349 46.4172 30.7321C46.3684 30.7321 46.2707 30.6835 46.2219 30.6835C46.0754 30.6349 45.929 30.6349 45.7825 30.6349C45.1478 30.5863 44.5131 30.6349 43.9273 30.8292C43.7808 30.8778 43.5855 30.9264 43.4391 31.0235C43.3902 31.0235 43.195 31.1692 43.195 31.1692C43.195 31.1692 43.1461 31.1692 43.1461 31.1207L40.8515 29.8577C39.6798 29.1776 38.4593 28.5461 37.2875 27.8661C36.604 27.4775 35.8717 27.1374 35.1882 26.7002C34.6512 26.3602 34.163 25.9716 33.8212 25.4858C33.7724 25.3887 33.7236 25.3401 33.6747 25.2429C33.6259 25.1944 33.6747 25.1458 33.7236 25.0972C33.8212 25.0001 33.9188 24.9029 34.0165 24.8058C34.1141 24.7572 34.163 24.66 34.2606 24.6115C34.6023 24.3686 34.9929 24.0771 35.3347 23.8342C36.1646 23.2513 36.9946 22.6198 37.8734 22.0369C38.0199 22.4255 38.6057 22.5713 38.9475 22.3284C39.1428 22.1826 39.2404 21.5997 39.2404 21.4054C39.338 20.5311 39.4845 19.7538 39.5333 18.8309C40.3145 19.7538 41.5838 20.1425 42.6579 20.5796C43.8785 21.0654 45.099 21.5512 46.3195 21.9883C46.6125 22.0855 46.8566 22.1826 47.1495 22.3284C47.296 22.377 47.4424 22.377 47.5889 22.2798C47.7842 22.0855 47.5889 21.8426 47.4424 21.6969C47.3448 21.5997 47.1983 21.5512 47.1007 21.5026C46.0266 20.9197 44.9525 20.3853 43.8785 19.8024C43.4879 19.6081 43.0973 19.4138 42.7067 19.1709C41.8279 18.6852 40.8515 18.4423 39.8263 18.2966C40.3633 17.9079 39.6798 17.4708 39.2892 17.325C38.7522 17.1307 38.1663 17.0822 37.6293 17.1793C37.5316 17.1793 37.4828 17.2279 37.4828 17.2279C37.4828 17.2279 37.3364 17.0822 37.2875 17.0336C37.1899 16.9364 37.0923 16.8393 36.9946 16.7421C36.7993 16.5964 36.5552 16.4507 36.3111 16.3535C36.1646 16.2564 35.9694 16.2078 35.8229 16.1592C34.7976 15.7706 33.7724 15.4306 32.7471 15.042C32.6007 14.9934 32.4054 14.8962 32.2589 14.8476C32.1124 14.7991 31.6242 14.7991 31.6242 15.042C31.6242 15.1877 31.9172 15.2848 31.966 15.3334C32.2101 15.4791 32.4542 15.6249 32.6983 15.7706C33.2353 16.0621 33.7724 16.4021 34.3094 16.6935C35.0906 17.1307 35.9205 17.3736 36.7993 17.5193C36.3111 18.0051 37.2387 18.3937 37.6293 18.4909C37.9222 18.588 38.264 18.588 38.5569 18.588C38.7034 18.588 38.8498 18.588 38.9963 18.5394C39.0451 18.5394 39.2892 18.4909 39.2892 18.4909C39.2892 18.4909 39.3869 18.588 39.4357 18.6852C39.3869 18.7337 39.338 18.8795 39.2892 18.8795C39.1916 18.928 39.1428 18.9766 39.0451 19.0252C38.801 19.1224 38.5081 19.1709 38.2151 19.1709C37.8734 19.1709 37.0923 19.0738 37.0923 18.588C37.0434 18.588 37.0434 18.5394 36.9946 18.5394C37.0923 18.9766 37.1899 19.3652 37.1899 19.3652C37.1899 19.3652 37.1411 19.3652 37.1411 19.4138C36.9946 19.4624 36.8481 19.511 36.7017 19.5595C35.53 19.9967 34.3094 20.4339 33.1377 20.8711C32.6495 21.0654 32.1613 21.2111 31.673 21.4054L31.3801 21.5026C31.1848 21.5512 31.0384 21.5997 30.8431 21.6483C30.5013 21.114 30.0131 20.7739 29.5249 20.5796C29.1831 20.4339 28.6461 20.4339 27.572 20.4339C26.4491 20.4339 25.9121 20.4825 25.6192 20.5796C25.1309 20.7739 24.6916 21.0654 24.301 21.6483C24.1057 21.5997 23.9592 21.5512 23.7639 21.5026C23.6663 21.454 23.5687 21.4054 23.471 21.4054C22.9828 21.2111 22.4946 21.0654 22.0064 20.8711C20.8346 20.4339 19.6141 19.9967 18.4424 19.5595C18.2959 19.511 18.1494 19.4624 18.003 19.4138C18.003 19.4138 17.9542 19.4138 17.9542 19.3652C17.9542 19.3652 18.1006 18.9766 18.1495 18.5394C18.1006 18.5394 18.0518 18.588 18.0518 18.588C18.003 19.0252 17.2707 19.1709 16.9289 19.1709C16.636 19.1709 16.3919 19.1224 16.0989 19.0252C16.0013 18.9766 15.9037 18.9766 15.8548 18.8795C15.806 18.8309 15.7084 18.7337 15.7084 18.6852C15.7572 18.588 15.8548 18.4909 15.8548 18.4909C15.8548 18.4909 16.0501 18.5394 16.1478 18.5394C16.2942 18.5394 16.4407 18.588 16.5872 18.588C16.8801 18.588 17.2218 18.5394 17.5148 18.4909C17.8565 18.3937 18.833 18.0051 18.3447 17.5193C19.2235 17.3736 20.0535 17.1307 20.8346 16.6935C21.3717 16.4021 21.9087 16.0621 22.4458 15.7706C22.6899 15.6249 22.934 15.4791 23.1781 15.3334C23.2757 15.2848 23.5198 15.1877 23.5198 15.042C23.5198 14.7991 23.0804 14.7991 22.8851 14.8476C22.7387 14.8962 22.5434 14.9934 22.3969 15.042C21.3717 15.4306 20.3464 15.7706 19.3212 16.1592C19.1747 16.2078 18.9794 16.3049 18.833 16.3535C18.5888 16.4507 18.3447 16.5964 18.1495 16.7421C18.0518 16.8393 17.9542 16.9364 17.8565 17.0336C17.8077 17.0822 17.6612 17.2279 17.6612 17.2279C17.6612 17.2279 17.6124 17.2279 17.5148 17.1793C16.9777 17.0822 16.3919 17.1307 15.8548 17.325C15.4643 17.4708 14.7808 17.9079 15.3178 18.2966C14.3414 18.4423 13.3161 18.6852 12.4373 19.1709C12.0467 19.3652 11.6562 19.5595 11.2656 19.8024C10.1915 20.3853 9.11744 20.9197 8.04337 21.5026C7.94572 21.5512 7.79926 21.5997 7.70162 21.6969C7.50633 21.8426 7.35987 22.0855 7.55515 22.2798C7.65279 22.377 7.84808 22.377 7.99455 22.3284C8.28748 22.2312 8.53159 22.1341 8.82452 21.9883C10.0451 21.5026 11.2656 21.0168 12.4861 20.5796C13.5602 20.1425 14.8296 19.8024 15.6107 18.8309C15.6595 19.7538 15.7572 20.4825 15.9037 21.4054C15.9525 21.5997 16.0013 22.1826 16.1966 22.3284C16.5383 22.5713 17.1242 22.4255 17.2707 22.0369L19.8094 23.8342C20.1511 24.0771 20.5417 24.3686 20.8835 24.6115C20.9811 24.66 21.0299 24.7572 21.1276 24.8058C21.2252 24.9029 21.3229 25.0001 21.4205 25.0972C21.4693 25.1458 21.5181 25.1944 21.4693 25.2429C21.4205 25.3401 21.3717 25.3887 21.3229 25.4858C20.9811 25.9716 20.4929 26.3602 19.9559 26.7002C19.2723 27.1374 18.54 27.4775 17.8565 27.8661C16.6848 28.5461 15.4643 29.1776 14.2925 29.8577L11.9979 31.1207C11.9979 31.1207 11.9491 31.1207 11.9491 31.1692L11.705 31.0235C11.5585 30.9749 11.4121 30.8778 11.2168 30.8292C10.6309 30.6349 9.99623 30.5863 9.36155 30.6349C9.21509 30.6349 9.06862 30.6835 8.92216 30.6835C8.87334 30.6835 8.77569 30.7321 8.72687 30.7321C8.67805 30.6835 8.62923 30.6349 8.62923 30.5378C8.43394 30.2949 8.18983 30.052 7.94572 29.8577C7.50633 29.5176 7.01811 29.2748 6.5299 29.0805C4.67467 28.4004 2.77063 27.7203 0.915406 27.0403C0.671298 26.9431 0.427189 26.9917 0.183081 27.1374C-0.0610271 27.2346 -0.0610271 27.4775 0.183081 27.5746C0.231903 27.5746 0.231903 27.6232 0.280725 27.6232C0.72012 27.8661 1.11069 28.1089 1.55009 28.3518C2.4777 28.8862 3.45413 29.4691 4.38174 30.0034C5.45582 30.6349 6.67636 30.9264 7.8969 31.0721C7.45751 31.5093 7.84808 31.995 8.28748 32.2379C8.82451 32.5294 9.4592 32.6751 10.0939 32.7237C10.3868 32.7237 10.6797 32.7237 11.0215 32.7237C11.168 32.7237 11.3144 32.6751 11.4121 32.6751C11.5097 32.6751 11.5585 32.6265 11.6562 32.6265C11.705 32.7237 11.7538 32.7723 11.8026 32.8694C12.1444 33.3552 12.6326 33.7924 13.1696 34.1324C13.9996 34.6667 14.976 35.0068 15.9037 35.3954C18.1983 36.3183 20.4929 37.1927 22.8363 38.1156C23.0316 38.2128 23.2757 38.2614 23.471 38.3585C23.6175 38.4071 23.8128 38.4557 23.9592 38.4071C24.2033 38.3099 24.301 38.0185 24.2033 37.7756C24.0569 37.5327 23.8128 37.387 23.6175 37.2413C22.7875 36.8041 21.9575 36.3669 21.1276 35.9297C19.6141 35.1525 18.1494 34.3267 16.5872 33.5495C18.4912 32.7237 20.4441 31.8493 22.3481 31.0235C22.7387 30.8778 23.0804 30.6835 23.471 30.5378C24.5451 30.1491 25.6192 29.9548 26.7421 29.8577H27.7673H28.7926C29.9155 29.9548 31.0384 30.1491 32.0636 30.5378C32.4542 30.6835 32.8448 30.8292 33.1865 31.0235C35.0906 31.8493 37.0434 32.7237 38.9475 33.5495C37.434 34.3267 35.9205 35.1525 34.4071 35.9297C33.5771 36.3669 32.7471 36.8041 31.9172 37.2413C31.673 37.387 31.4289 37.5327 31.3313 37.7756C31.1848 38.0185 31.2825 38.3099 31.5754 38.4071C31.7219 38.4557 31.9172 38.4557 32.0636 38.3585C32.2589 38.2614 32.503 38.2128 32.6983 38.1156C34.9929 37.1927 37.2875 36.3183 39.631 35.3954C40.5586 35.0068 41.535 34.7153 42.365 34.1324C42.902 33.7924 43.3902 33.4037 43.732 32.8694C43.7808 32.7723 43.8296 32.7237 43.8785 32.6265C43.9761 32.6265 44.0249 32.6751 44.1226 32.6751C44.269 32.7237 44.4155 32.7237 44.5131 32.7237C44.8061 32.7723 45.099 32.7723 45.4408 32.7237C46.0754 32.6751 46.7101 32.5294 47.2472 32.2379C47.6866 31.995 48.0771 31.5093 47.6377 31.0721C48.8583 30.8778 50.0788 30.5863 51.1529 30.0034C52.0805 29.4691 53.0569 28.8862 53.9845 28.3518C54.4239 28.1089 54.8145 27.8661 55.2539 27.6232C55.3027 27.6232 55.3027 27.5746 55.3516 27.5746C55.2051 27.4289 55.1563 27.2346 54.961 27.1374ZM35.1394 22.0369C35.8717 21.5512 36.5552 21.0654 37.2875 20.5796C37.3364 20.8225 37.434 21.114 37.4828 21.3569L37.434 21.4054C37.2875 21.5026 37.1899 21.5997 37.0434 21.6969C36.604 21.9883 36.1158 22.3284 35.6764 22.6198C35.237 22.9113 34.7976 23.2028 34.4071 23.4942C33.9677 23.7857 33.4795 24.1257 33.2842 24.66V24.7086C32.8936 23.3485 34.2118 22.6684 35.1394 22.0369ZM20.3464 23.4456C19.907 23.1542 19.4676 22.8627 19.0771 22.5713C18.6377 22.2798 18.1495 21.9398 17.7101 21.6483C17.5636 21.5512 17.4659 21.454 17.3195 21.3569L17.2707 21.3083C17.3195 21.0654 17.4171 20.7739 17.4659 20.5311C18.1983 21.0168 18.8818 21.5026 19.6141 21.9883C20.5417 22.6198 21.9087 23.2999 21.4693 24.66V24.6115C21.274 24.1257 20.8346 23.7857 20.3464 23.4456ZM40.5098 32.7723C40.4121 32.8208 40.1192 32.9666 40.0704 32.918C40.0216 32.8694 39.9727 32.8694 39.8751 32.8208C37.7269 31.8979 35.5788 31.0235 33.4306 30.1006C32.3565 29.6634 31.2825 29.2262 30.1596 28.9833C29.2808 28.789 28.3532 28.7404 27.4256 28.7404C26.498 28.7404 25.5703 28.8376 24.6916 28.9833C23.5198 29.2262 22.4946 29.6634 21.4205 30.1006C19.2723 31.0235 17.1242 31.8979 14.976 32.8208C14.9272 32.8694 14.8784 32.8694 14.7808 32.918C14.6831 32.9666 14.439 32.8208 14.3414 32.7723C14.0484 32.6751 13.7555 32.6265 13.4626 32.5294C15.3178 31.7522 17.173 30.9749 19.0282 30.1977C20.0047 29.7605 21.0299 29.3719 22.0064 28.9347C23.5198 28.3032 25.0821 27.9146 26.6932 27.8175C26.9373 27.8175 27.1815 27.8175 27.4256 27.8175C27.6697 27.8175 27.9138 27.8175 28.1579 27.8175C29.8178 27.9146 31.3313 28.3032 32.8448 28.9347C33.8212 29.3719 34.8465 29.7605 35.8229 30.1977C37.6781 30.9749 39.5333 31.7522 41.3886 32.5294C41.0956 32.6265 40.8027 32.7237 40.5098 32.7723Z" fill="#0054A6"/>
<path d="M33.2852 24.6595C33.2852 24.6595 33.3332 24.516 33.2852 24.6595V24.6595Z" fill="#0054A6"/>
</svg>
