<svg width="169" height="44" viewBox="0 0 169 44" fill="none" xmlns="http://www.w3.org/2000/svg">
<path d="M50.7031 23.1912V4.47123H52.6029V12.5885H62.7878V4.47123H64.6876V23.1912H62.7878V14.3336H52.6029V23.1912H50.7031ZM67.4256 23.1912L75.4996 4.47123H77.3466L85.3679 23.1912H83.2571L81.199 18.2733H71.5418L69.5101 23.1912H67.4256ZM72.2542 16.5282H80.4866L76.3704 6.58649L72.2542 16.5282ZM88.1174 23.1912V4.47123H102.102V23.1912H100.202V6.16344H90.0171V23.1912H88.1174ZM111.436 23.1912L119.51 4.47123H121.357L129.379 23.1912H127.268L125.21 18.2733H115.552L113.521 23.1912H111.436ZM116.265 16.5282H124.497L120.381 6.58649L116.265 16.5282ZM147.364 20.8909C145.517 22.7417 143.195 23.6672 140.398 23.6672C137.601 23.6672 135.279 22.7417 133.432 20.8909C131.585 19.0224 130.661 16.6692 130.661 13.8312C130.661 10.9933 131.585 8.64886 133.432 6.79801C135.279 4.92955 137.601 3.9953 140.398 3.9953C143.195 3.9953 145.517 4.92955 147.364 6.79801C149.211 8.64886 150.134 10.9933 150.134 13.8312C150.134 16.6692 149.211 19.0224 147.364 20.8909ZM134.778 19.6217C136.202 21.1906 138.076 21.975 140.398 21.975C142.72 21.975 144.584 21.1906 145.991 19.6217C147.416 18.0353 148.129 16.1051 148.129 13.8312C148.129 11.5573 147.416 9.62716 145.991 8.04072C144.584 6.45428 142.72 5.66106 140.398 5.66106C138.076 5.66106 136.202 6.45428 134.778 8.04072C133.37 9.62716 132.667 11.5573 132.667 13.8312C132.667 16.1051 133.37 18.0353 134.778 19.6217ZM154.082 23.1912V4.47123H155.982V12.5885H166.166V4.47123H168.066V23.1912H166.166V14.3336H155.982V23.1912H154.082Z" fill="#3B4256" stroke="#3B4256"/>
<path d="M50.4062 30.3367H52.1335V29.0315H52.4608V31.985H52.1335V30.6246H50.4062V31.985H50.0789V29.0315H50.4062V30.3367ZM53.0765 31.985L54.1531 29.0315H54.6303L55.7305 31.985H55.3795L55.1587 31.3778H53.668L53.4314 31.985H53.0765ZM55.0522 31.0899L54.3976 29.276L53.7469 31.0899H55.0522ZM56.6523 29.0315V31.6972H58.3796V29.0315H58.7069V31.6972H58.9278V32.6632H58.6123V31.985H56.325V29.0315H56.6523ZM59.8543 29.0315V31.7603L61.5342 29.0315H62.0587V31.985H61.7314V29.2839L60.0475 31.985H59.5269V29.0315H59.8543ZM62.7695 30.5103C62.7695 29.8872 62.8509 29.4798 63.0141 29.2879C63.177 29.0959 63.5109 29 64.0157 29C64.5178 29 64.8478 29.0959 65.0056 29.2879C65.1658 29.4771 65.2461 29.8845 65.2461 30.5103C65.2461 31.1306 65.1658 31.5367 65.0056 31.7287C64.8451 31.9207 64.5126 32.0166 64.0078 32.0166C63.5055 32.0166 63.1757 31.9232 63.018 31.7366C62.8524 31.5421 62.7695 31.1333 62.7695 30.5103ZM63.0969 30.5103C63.0969 31.0359 63.1494 31.3711 63.2546 31.5158C63.3596 31.6577 63.612 31.7287 64.0118 31.7287C64.4086 31.7287 64.6585 31.6577 64.7611 31.5158C64.8661 31.3711 64.9188 31.0359 64.9188 30.5103C64.9188 29.9792 64.8675 29.6427 64.765 29.5008C64.6649 29.3588 64.414 29.2879 64.0118 29.2879C63.6095 29.2879 63.3557 29.3601 63.2507 29.5047C63.1481 29.6467 63.0969 29.9819 63.0969 30.5103ZM66.2852 30.3367H68.0125V29.0315H68.3399V31.985H68.0125V30.6246H66.2852V31.985H65.9579V29.0315H66.2852V30.3367ZM68.9555 31.985L70.0321 29.0315H70.5093L71.6096 31.985H71.2586L71.0378 31.3778H69.5471L69.3105 31.985H68.9555ZM70.9313 31.0899L70.2766 29.276L69.626 31.0899H70.9313ZM72.4328 29.0315H74.515V31.985H74.1877V29.3194H72.7601V31.1215C72.7601 31.4184 72.7207 31.6328 72.6418 31.7642C72.555 31.9113 72.4091 31.985 72.2041 31.985H71.9951V31.6972H72.0739C72.208 31.6972 72.2987 31.6656 72.346 31.6025C72.404 31.5264 72.4328 31.3778 72.4328 31.1569V29.0315ZM75.6293 29.0315V30.3367H76.6152C76.9413 30.3367 77.1688 30.3947 77.2974 30.5103C77.4263 30.6258 77.4907 30.8363 77.4907 31.1412C77.4907 31.4436 77.4236 31.6604 77.2896 31.7918C77.1582 31.9207 76.9361 31.985 76.6231 31.985H75.302V29.0315H75.6293ZM75.6293 30.6246V31.6972H76.5994C76.8257 31.6972 76.978 31.6538 77.0569 31.567C77.1279 31.4909 77.1634 31.3489 77.1634 31.1412C77.1634 30.9231 77.1227 30.7823 77.0411 30.7192C76.9622 30.6562 76.8006 30.6246 76.556 30.6246H75.6293ZM78.5463 30.3367H80.2736V29.0315H80.6009V31.985H80.2736V30.6246H78.5463V31.985H78.219V29.0315H78.5463V30.3367ZM81.2166 31.985L82.2932 29.0315H82.7704L83.8706 31.985H83.5197L83.2988 31.3778H81.8082L81.5715 31.985H81.2166ZM83.1923 31.0899L82.5377 29.276L81.887 31.0899H83.1923ZM86.3226 30.802H85.4116L84.7491 31.985H84.3508L85.0488 30.7626C84.8516 30.7284 84.6966 30.6404 84.5834 30.4984C84.46 30.3459 84.3981 30.1448 84.3981 29.8951C84.3981 29.5954 84.4757 29.3773 84.6308 29.2405C84.7885 29.1013 85.0251 29.0315 85.3406 29.0315H86.6499V31.985H86.3226V30.802ZM86.3226 30.5142V29.3194H85.2736C85.0712 29.3194 84.9292 29.3719 84.8477 29.4771C84.7661 29.5797 84.7254 29.7401 84.7254 29.9582C84.7254 30.3289 84.9608 30.5142 85.4313 30.5142H86.3226ZM88.4427 31.985L89.5193 29.0315H89.9965L91.0968 31.985H90.7458L90.5249 31.3778H89.0343L88.7977 31.985H88.4427ZM90.4185 31.0899L89.7638 29.276L89.1131 31.0899H90.4185ZM93.6433 30.9992H93.9627C93.9627 31.3884 93.8824 31.655 93.7222 31.7997C93.5617 31.9444 93.2514 32.0166 92.7915 32.0166C92.3313 32.0166 92.0237 31.9246 91.8687 31.7405C91.6977 31.5382 91.6124 31.1306 91.6124 30.5181C91.6124 29.9082 91.6964 29.4996 91.8648 29.2918C92.0225 29.0973 92.3313 29 92.7915 29C93.2411 29 93.5472 29.0776 93.7104 29.2326C93.8523 29.3694 93.9233 29.6139 93.9233 29.9661H93.6039C93.5748 29.6901 93.5184 29.5126 93.4343 29.4338C93.3318 29.3364 93.1174 29.2879 92.7915 29.2879C92.4497 29.2879 92.2222 29.3667 92.1093 29.5244C91.9961 29.6822 91.9397 30.0134 91.9397 30.5181C91.9397 31.0202 91.9949 31.3474 92.1053 31.5C92.2182 31.6526 92.4469 31.7287 92.7915 31.7287C93.1358 31.7287 93.3633 31.6802 93.4738 31.5828C93.5866 31.4855 93.6433 31.291 93.6433 30.9992ZM96.5256 30.9992H96.845C96.845 31.3884 96.7649 31.655 96.6045 31.7997C96.444 31.9444 96.1339 32.0166 95.6738 32.0166C95.2136 32.0166 94.906 31.9246 94.751 31.7405C94.5802 31.5382 94.4946 31.1306 94.4946 30.5181C94.4946 29.9082 94.5787 29.4996 94.747 29.2918C94.9048 29.0973 95.2136 29 95.6738 29C96.1233 29 96.4297 29.0776 96.5926 29.2326C96.7346 29.3694 96.8056 29.6139 96.8056 29.9661H96.4861C96.4573 29.6901 96.4006 29.5126 96.3166 29.4338C96.214 29.3364 95.9999 29.2879 95.6738 29.2879C95.3319 29.2879 95.1047 29.3667 94.9915 29.5244C94.8784 29.6822 94.822 30.0134 94.822 30.5181C94.822 31.0202 94.8772 31.3474 94.9876 31.5C95.1007 31.6526 95.3294 31.7287 95.6738 31.7287C96.0181 31.7287 96.2456 31.6802 96.356 31.5828C96.4691 31.4855 96.5256 31.291 96.5256 30.9992ZM97.3769 30.5103C97.3769 29.8872 97.4585 29.4798 97.6214 29.2879C97.7846 29.0959 98.1183 29 98.6231 29C99.1254 29 99.4552 29.0959 99.6129 29.2879C99.7734 29.4771 99.8535 29.8845 99.8535 30.5103C99.8535 31.1306 99.7734 31.5367 99.6129 31.7287C99.4527 31.9207 99.12 32.0166 98.6152 32.0166C98.1131 32.0166 97.7831 31.9232 97.6254 31.7366C97.4597 31.5421 97.3769 31.1333 97.3769 30.5103ZM97.7042 30.5103C97.7042 31.0359 97.757 31.3711 97.862 31.5158C97.9672 31.6577 98.2196 31.7287 98.6191 31.7287C99.0162 31.7287 99.2659 31.6577 99.3684 31.5158C99.4737 31.3711 99.5262 31.0359 99.5262 30.5103C99.5262 29.9792 99.4749 29.6427 99.3724 29.5008C99.2725 29.3588 99.0214 29.2879 98.6191 29.2879C98.2169 29.2879 97.9633 29.3601 97.858 29.5047C97.7555 29.6467 97.7042 29.9819 97.7042 30.5103ZM100.893 29.0315V31.6972H102.62V29.0315H102.947V31.6972H103.168V32.6632H102.853V31.985H100.566V29.0315H100.893ZM104.095 29.0315V31.7603L105.775 29.0315H106.299V31.985H105.972V29.2839L104.288 31.985H103.767V29.0315H104.095ZM106.915 31.985L107.992 29.0315H108.469L109.569 31.985H109.218L108.998 31.3778H107.507L107.27 31.985H106.915ZM108.891 31.0899L108.237 29.276L107.586 31.0899H108.891ZM110.491 29.0315V31.6972H112.218V29.0315H112.546V31.6972H112.766V32.6632H112.451V31.985H110.164V29.0315H110.491ZM113.693 29.0315V31.7603L115.373 29.0315H115.897V31.985H115.57V29.2839L113.886 31.985H113.366V29.0315H113.693ZM118.545 30.802H117.634L116.971 31.985H116.573L117.271 30.7626C117.074 30.7284 116.919 30.6404 116.805 30.4984C116.682 30.3459 116.62 30.1448 116.62 29.8951C116.62 29.5954 116.698 29.3773 116.853 29.2405C117.01 29.1013 117.247 29.0315 117.563 29.0315H118.872V31.985H118.545V30.802ZM118.545 30.5142V29.3194H117.496C117.293 29.3194 117.151 29.3719 117.07 29.4771C116.988 29.5797 116.947 29.7401 116.947 29.9582C116.947 30.3289 117.183 30.5142 117.653 30.5142H118.545ZM50.0789 34.6999H52.4608V37.6534H52.1335V34.9878H50.4062V37.6534H50.0789V34.6999ZM53.5773 36.498V37.6534H53.25V34.6999H54.6579C54.9418 34.6999 55.1429 34.7657 55.2612 34.8971C55.3795 35.0284 55.4387 35.2429 55.4387 35.5398C55.4387 35.9026 55.3692 36.1537 55.2297 36.293C55.0931 36.4298 54.8353 36.498 54.4567 36.498H53.5773ZM53.5773 34.9878V36.2102H54.3621C54.6409 36.2102 54.8314 36.172 54.9339 36.0958C55.0522 36.0064 55.1114 35.8356 55.1114 35.5832C55.1114 35.3624 55.0813 35.2113 55.0207 35.1297C54.9497 35.0351 54.8131 34.9878 54.6105 34.9878H53.5773ZM56.0344 36.1786C56.0344 35.5556 56.1157 35.1482 56.2789 34.9562C56.4418 34.7642 56.7758 34.6684 57.2806 34.6684C57.7826 34.6684 58.1127 34.7642 58.2704 34.9562C58.4306 35.1455 58.511 35.5529 58.511 36.1786C58.511 36.7989 58.4306 37.2051 58.2704 37.3971C58.11 37.5891 57.7775 37.6849 57.2727 37.6849C56.7704 37.6849 56.4406 37.5915 56.2829 37.405C56.1172 37.2105 56.0344 36.8017 56.0344 36.1786ZM56.3617 36.1786C56.3617 36.7043 56.4142 37.0395 56.5195 37.1841C56.6245 37.3261 56.8769 37.3971 57.2766 37.3971C57.6735 37.3971 57.9234 37.3261 58.0259 37.1841C58.1309 37.0395 58.1837 36.7043 58.1837 36.1786C58.1837 35.6475 58.1324 35.3111 58.0299 35.1692C57.9298 35.0272 57.6789 34.9562 57.2766 34.9562C56.8744 34.9562 56.6205 35.0284 56.5155 35.1731C56.413 35.3151 56.3617 35.6502 56.3617 36.1786ZM59.5501 34.6999V37.4286L61.2301 34.6999H61.7546V37.6534H61.4273V34.9523L59.7433 37.6534H59.2228V34.6999H59.5501ZM63.1671 36.293V36.0051H63.8336C64.0677 36.0051 64.2228 35.9696 64.2989 35.8987C64.3753 35.8277 64.4133 35.6805 64.4133 35.457C64.4133 35.2677 64.3568 35.1376 64.2437 35.0666C64.1333 34.993 63.9361 34.9562 63.6522 34.9562C63.3473 34.9562 63.1422 34.9969 63.037 35.0785C62.932 35.16 62.8792 35.319 62.8792 35.5556H62.5519C62.5519 35.198 62.6426 34.9562 62.824 34.83C62.9793 34.7223 63.2553 34.6684 63.6522 34.6684C64.0465 34.6684 64.3265 34.7248 64.4922 34.8379C64.6578 34.9483 64.7406 35.1416 64.7406 35.4176C64.7406 35.6463 64.7026 35.8159 64.6262 35.9263C64.5501 36.0367 64.4251 36.1049 64.2516 36.1313C64.4621 36.1601 64.6065 36.2338 64.6854 36.3521C64.7564 36.4574 64.7919 36.6294 64.7919 36.8687C64.7919 37.1684 64.7051 37.3801 64.5316 37.5035C64.3581 37.6246 64.065 37.6849 63.6522 37.6849C63.2026 37.6849 62.8977 37.6285 62.7373 37.5154C62.5795 37.4023 62.5006 37.1869 62.5006 36.8687V36.7701H62.828V36.8647C62.828 37.0962 62.8768 37.2433 62.9739 37.3064C63.0739 37.3668 63.3 37.3971 63.6522 37.3971C63.9731 37.3971 64.1924 37.3498 64.3107 37.2551C64.4133 37.1736 64.4645 37.0291 64.4645 36.8214C64.4645 36.6427 64.4172 36.5099 64.3226 36.4231C64.2279 36.3364 64.0717 36.293 63.8533 36.293H63.1671ZM65.7999 36.293V37.3655H66.7109C66.9818 37.3655 67.1592 37.3367 67.2433 37.2788C67.3485 37.2078 67.401 37.0553 67.401 36.8214C67.401 36.59 67.3631 36.4416 67.2867 36.3758C67.2236 36.3206 67.0777 36.293 66.8489 36.293H65.7999ZM65.7999 34.9878V36.0051H66.7385C66.9569 36.0051 67.1067 35.9669 67.1881 35.8908C67.2724 35.8119 67.3143 35.6672 67.3143 35.457C67.3143 35.2756 67.2827 35.1522 67.2196 35.0864C67.1565 35.0206 67.037 34.9878 66.8608 34.9878H65.7999ZM65.4726 37.6534V34.6999H66.8963C67.1541 34.6999 67.3419 34.7564 67.4602 34.8695C67.5812 34.9799 67.6416 35.1652 67.6416 35.4255C67.6416 35.6199 67.6234 35.7594 67.5864 35.8435C67.5339 35.9618 67.4301 36.0485 67.2748 36.1037C67.459 36.1537 67.5824 36.2338 67.6455 36.3442C67.7007 36.4389 67.7283 36.59 67.7283 36.7977C67.7283 37.0789 67.6746 37.2879 67.5667 37.4247C67.4459 37.5772 67.2499 37.6534 66.9791 37.6534H65.4726ZM68.3571 36.1786C68.3571 35.5556 68.4384 35.1482 68.6016 34.9562C68.7645 34.7642 69.0985 34.6684 69.6033 34.6684C70.1053 34.6684 70.4354 34.7642 70.5931 34.9562C70.7533 35.1455 70.8337 35.5529 70.8337 36.1786C70.8337 36.7989 70.7533 37.2051 70.5931 37.3971C70.4327 37.5891 70.1002 37.6849 69.5954 37.6849C69.0931 37.6849 68.7633 37.5915 68.6055 37.405C68.4399 37.2105 68.3571 36.8017 68.3571 36.1786ZM68.6844 36.1786C68.6844 36.7043 68.7369 37.0395 68.8422 37.1841C68.9472 37.3261 69.1996 37.3971 69.5993 37.3971C69.9962 37.3971 70.2461 37.3261 70.3486 37.1841C70.4536 37.0395 70.5064 36.7043 70.5064 36.1786C70.5064 35.6475 70.4551 35.3111 70.3526 35.1692C70.2525 35.0272 70.0016 34.9562 69.5993 34.9562C69.1971 34.9562 68.9432 35.0284 68.8382 35.1731C68.7357 35.3151 68.6844 35.6502 68.6844 36.1786ZM71.577 37.3655C71.6847 37.1999 71.7612 37.0264 71.8058 36.845C71.8531 36.6609 71.8767 36.4534 71.8767 36.222V34.6999H73.884V37.3655H74.097V38.3316H73.7973V37.6534H71.6953V38.3316H71.3956V37.3655H71.577ZM73.5567 34.9878H72.2041V36.1826C72.2041 36.4744 72.1843 36.7043 72.1449 36.8726C72.1082 37.0382 72.0424 37.2026 71.9477 37.3655H73.5567V34.9878ZM75.0402 34.6999V37.4286L76.7202 34.6999H77.2447V37.6534H76.9174V34.9523L75.2335 37.6534H74.7129V34.6999H75.0402ZM79.0989 34.9878V37.6534H78.7716V34.9878H77.8173V34.6999H80.0533V34.9878H79.0989ZM80.9667 36.0051H82.4692V36.293H80.9667V37.3655H82.5323V37.6534H80.6394V34.6999H82.5402V34.9878H80.9667V36.0051ZM83.4539 34.6999H85.5361V37.6534H85.2087V34.9878H83.7812V36.7898C83.7812 37.0868 83.7417 37.3012 83.6629 37.4326C83.5761 37.5797 83.4302 37.6534 83.2251 37.6534H83.0161V37.3655H83.095C83.2291 37.3655 83.3198 37.334 83.3671 37.2709C83.425 37.1947 83.4539 37.0461 83.4539 36.8253V34.6999ZM86.6504 36.0051H88.1529V36.293H86.6504V37.3655H88.216V37.6534H86.3231V34.6999H88.2239V34.9878H86.6504V36.0051ZM89.2361 34.6999V37.4247L90.9161 34.6999H91.4406V37.6534H91.1133V34.9483L89.4294 37.6534H88.9088V34.6999H89.2361ZM90.506 34.1755H90.7307C90.7307 34.3569 90.6888 34.4779 90.6045 34.5382C90.5232 34.5986 90.3628 34.6289 90.1234 34.6289C89.9026 34.6289 89.7463 34.5974 89.6541 34.5343C89.5649 34.4712 89.5201 34.3517 89.5201 34.1755H89.7448C89.7448 34.2516 89.7673 34.3095 89.8119 34.349C89.8567 34.3857 89.9605 34.4042 90.1234 34.4042C90.2629 34.4042 90.3561 34.3936 90.4034 34.3726C90.472 34.3438 90.506 34.278 90.506 34.1755ZM94.4715 34.9878V37.6534H94.1442V34.9878H93.1898V34.6999H95.4258V34.9878H94.4715ZM96.339 36.0051H97.8415V36.293H96.339V37.3655H97.9046V37.6534H96.0117V34.6999H97.9125V34.9878H96.339V36.0051ZM98.8577 34.6999L99.6938 35.9618L100.53 34.6999H100.924L99.954 36.1234L101.011 37.6534H100.609L99.6938 36.2969L98.7788 37.6534H98.3766L99.4335 36.1234L98.4634 34.6999H98.8577ZM101.865 36.0051H103.592V34.6999H103.92V37.6534H103.592V36.293H101.865V37.6534H101.538V34.6999H101.865V36.0051ZM105.036 34.6999V37.4286L106.716 34.6999H107.241V37.6534H106.913V34.9523L105.229 37.6534H104.709V34.6999H105.036ZM108.358 34.6999V36.0051H108.649L109.86 34.6999H110.298L108.941 36.1274L110.456 37.6534H110.002L108.649 36.293H108.358V37.6534H108.03V34.6999H108.358ZM111.34 34.6999V37.4286L113.02 34.6999H113.545V37.6534H113.217V34.9523L111.533 37.6534H111.013V34.6999H111.34ZM115.337 37.6534L116.414 34.6999H116.891L117.991 37.6534H117.64L117.419 37.0461H115.928L115.692 37.6534H115.337ZM117.313 36.7583L116.658 34.9444L116.007 36.7583H117.313ZM118.913 36.293V37.3655H119.823C120.094 37.3655 120.272 37.3367 120.356 37.2788C120.461 37.2078 120.514 37.0553 120.514 36.8214C120.514 36.59 120.476 36.4416 120.399 36.3758C120.336 36.3206 120.19 36.293 119.962 36.293H118.913ZM118.913 34.9878V36.0051H119.851C120.069 36.0051 120.219 35.9669 120.301 35.8908C120.385 35.8119 120.427 35.6672 120.427 35.457C120.427 35.2756 120.395 35.1522 120.332 35.0864C120.269 35.0206 120.15 34.9878 119.973 34.9878H118.913ZM118.585 37.6534V34.6999H120.009C120.267 34.6999 120.454 34.7564 120.573 34.8695C120.694 34.9799 120.754 35.1652 120.754 35.4255C120.754 35.6199 120.736 35.7594 120.699 35.8435C120.646 35.9618 120.543 36.0485 120.387 36.1037C120.572 36.1537 120.695 36.2338 120.758 36.3442C120.813 36.4389 120.841 36.59 120.841 36.7977C120.841 37.0789 120.787 37.2879 120.679 37.4247C120.558 37.5772 120.363 37.6534 120.092 37.6534H118.585ZM121.876 34.6999V37.4286L123.556 34.6999H124.08V37.6534H123.753V34.9523L122.069 37.6534H121.549V34.6999H121.876ZM124.696 37.6534L125.773 34.6999H126.25L127.35 37.6534H126.999L126.778 37.0461H125.288L125.051 37.6534H124.696ZM126.672 36.7583L126.017 34.9444L125.367 36.7583H126.672ZM128.272 34.6999V37.3655H129.999V34.6999H130.327V37.3655H130.548V38.3316H130.232V37.6534H127.945V34.6999H128.272ZM131.474 34.6999V37.4286L133.154 34.6999H133.679V37.6534H133.351V34.9523L131.667 37.6534H131.147V34.6999H131.474ZM134.796 34.6999V37.4286L136.476 34.6999H137V37.6534H136.673V34.9523L134.989 37.6534H134.468V34.6999H134.796ZM50 41.847C50 41.224 50.0816 40.8166 50.2445 40.6246C50.4074 40.4326 50.7414 40.3368 51.2462 40.3368C51.7482 40.3368 52.0783 40.4326 52.236 40.6246C52.3965 40.8139 52.4766 41.2213 52.4766 41.847C52.4766 42.4673 52.3965 42.8735 52.236 43.0655C52.0756 43.2574 51.7431 43.3533 51.2383 43.3533C50.7362 43.3533 50.4062 43.2599 50.2484 43.0733C50.0828 42.8789 50 42.47 50 41.847ZM50.3273 41.847C50.3273 42.3727 50.3798 42.7079 50.4851 42.8525C50.5903 42.9945 50.8427 43.0655 51.2422 43.0655C51.6393 43.0655 51.889 42.9945 51.9915 42.8525C52.0968 42.7079 52.1493 42.3727 52.1493 41.847C52.1493 41.3159 52.098 40.9795 51.9954 40.8375C51.8956 40.6956 51.6445 40.6246 51.2422 40.6246C50.84 40.6246 50.5864 40.6968 50.4811 40.8415C50.3786 40.9834 50.3273 41.3186 50.3273 41.847ZM53.2002 40.3683H55.1523V40.6562H53.5275V41.6735H54.5134C54.8395 41.6735 55.067 41.7314 55.1957 41.847C55.3246 41.9626 55.3889 42.1731 55.3889 42.4779C55.3889 42.7803 55.3219 42.9972 55.1878 43.1285C55.0564 43.2574 54.8343 43.3218 54.5213 43.3218H53.2002V40.3683ZM53.5275 41.9614V43.0339H54.4977C54.7239 43.0339 54.8762 42.9905 54.9551 42.9038C55.0261 42.8276 55.0616 42.6857 55.0616 42.4779C55.0616 42.2598 55.0209 42.1191 54.9393 42.056C54.8605 41.9929 54.6988 41.9614 54.4543 41.9614H53.5275ZM57.9507 40.3683H58.2781V43.0339H59.7845V40.3683H60.1118V43.0339H60.3327V44H60.0172V43.3218H56.117V40.3683H56.4443V43.0339H57.9507V40.3683ZM61.3062 41.6735H62.8087V41.9614H61.3062V43.0339H62.8718V43.3218H60.9789V40.3683H62.8797V40.6562H61.3062V41.6735ZM63.5686 40.3683H65.3945V40.6562H63.8959V43.3218H63.5686V40.3683ZM65.8714 41.847C65.8714 41.224 65.9528 40.8166 66.1159 40.6246C66.2788 40.4326 66.6128 40.3368 67.1176 40.3368C67.6197 40.3368 67.9497 40.4326 68.1074 40.6246C68.2676 40.8139 68.348 41.2213 68.348 41.847C68.348 42.4673 68.2676 42.8735 68.1074 43.0655C67.947 43.2574 67.6145 43.3533 67.1097 43.3533C66.6074 43.3533 66.2776 43.2599 66.1199 43.0733C65.9542 42.8789 65.8714 42.47 65.8714 41.847ZM66.1987 41.847C66.1987 42.3727 66.2512 42.7079 66.3565 42.8525C66.4615 42.9945 66.7139 43.0655 67.1136 43.0655C67.5105 43.0655 67.7604 42.9945 67.8629 42.8525C67.9679 42.7079 68.0207 42.3727 68.0207 41.847C68.0207 41.3159 67.9694 40.9795 67.8669 40.8375C67.7668 40.6956 67.5159 40.6246 67.1136 40.6246C66.7114 40.6246 66.4575 40.6968 66.3525 40.8415C66.25 40.9834 66.1987 41.3186 66.1987 41.847ZM70.5635 41.6735H72.2908V40.3683H72.6181V43.3218H72.2908V41.9614H70.5635V43.3218H70.2362V40.3683H70.5635V41.6735ZM73.2338 43.3218L74.3104 40.3683H74.7876L75.8879 43.3218H75.5369L75.316 42.7145H73.8254L73.5888 43.3218H73.2338ZM75.2096 42.4267L74.5549 40.6128L73.9042 42.4267H75.2096ZM77.1052 41.9614V41.6735H77.7717C78.0058 41.6735 78.1608 41.638 78.237 41.567C78.3134 41.4961 78.3514 41.3489 78.3514 41.1254C78.3514 40.9361 78.2949 40.806 78.1818 40.735C78.0714 40.6613 77.8742 40.6246 77.5903 40.6246C77.2854 40.6246 77.0803 40.6653 76.975 40.7468C76.8701 40.8284 76.8173 40.9874 76.8173 41.224H76.49C76.49 40.8664 76.5807 40.6246 76.7621 40.4984C76.9174 40.3907 77.1934 40.3368 77.5903 40.3368C77.9846 40.3368 78.2646 40.3932 78.4302 40.5063C78.5959 40.6167 78.6787 40.8099 78.6787 41.086C78.6787 41.3147 78.6407 41.4842 78.5643 41.5946C78.4882 41.705 78.3632 41.7733 78.1897 41.7997C78.4002 41.8285 78.5446 41.9022 78.6235 42.0205C78.6945 42.1257 78.7299 42.2978 78.7299 42.5371C78.7299 42.8368 78.6432 43.0485 78.4697 43.1719C78.2962 43.2929 78.0031 43.3533 77.5903 43.3533C77.1407 43.3533 76.8358 43.2969 76.6753 43.1838C76.5176 43.0706 76.4387 42.8552 76.4387 42.5371V42.4385H76.766V42.5331C76.766 42.7645 76.8148 42.9117 76.912 42.9748C77.012 43.0351 77.238 43.0655 77.5903 43.0655C77.9112 43.0655 78.1305 43.0181 78.2488 42.9235C78.3514 42.8419 78.4026 42.6975 78.4026 42.4897C78.4026 42.3111 78.3553 42.1782 78.2607 42.0915C78.166 42.0047 78.0098 41.9614 77.7914 41.9614H77.1052ZM79.738 41.6735H81.4653V40.3683H81.7926V43.3218H81.4653V41.9614H79.738V43.3218H79.4107V40.3683H79.738V41.6735ZM82.4083 43.3218L83.4849 40.3683H83.9621L85.0623 43.3218H84.7114L84.4905 42.7145H82.9999L82.7632 43.3218H82.4083ZM84.384 42.4267L83.7294 40.6128L83.0787 42.4267H84.384ZM85.6174 40.3683H85.9447V41.1175C85.9447 41.3778 86.0051 41.5461 86.1261 41.6222C86.2181 41.6802 86.4101 41.709 86.7019 41.709C86.9385 41.709 87.1081 41.705 87.2106 41.6972C87.3131 41.6893 87.4144 41.6747 87.5143 41.6538V40.3683H87.8416V43.3218H87.5143V41.9338C87.409 41.9574 87.2749 41.9744 87.112 41.985C86.9491 41.9929 86.7859 41.9968 86.623 41.9968C86.2235 41.9968 85.9553 41.935 85.8185 41.8115C85.6844 41.6853 85.6174 41.4342 85.6174 41.0584V40.3683ZM88.9588 41.6735H90.4613V41.9614H88.9588V43.0339H90.5244V43.3218H88.6315V40.3683H90.5323V40.6562H88.9588V41.6735ZM91.5448 41.6735H93.2721V40.3683H93.5994V43.3218H93.2721V41.9614H91.5448V43.3218H91.2175V40.3683H91.5448V41.6735ZM94.716 40.3683V43.097L96.3959 40.3683H96.9204V43.3218H96.5931V40.6207L94.9092 43.3218H94.3887V40.3683H94.716ZM99.5676 42.1388H98.6566L97.9941 43.3218H97.5958L98.2938 42.0994C98.0966 42.0651 97.9413 41.9771 97.8284 41.8352C97.7047 41.6826 97.6431 41.4815 97.6431 41.2319C97.6431 40.9322 97.7205 40.7141 97.8758 40.5773C98.0335 40.438 98.2701 40.3683 98.5856 40.3683H99.8949V43.3218H99.5676V42.1388ZM99.5676 41.8509V40.6562H98.5186C98.316 40.6562 98.174 40.7086 98.0927 40.8139C98.0111 40.9164 97.9704 41.0768 97.9704 41.295C97.9704 41.6656 98.2055 41.8509 98.6763 41.8509H99.5676Z" fill="#181C32"/>
<path d="M21.6621 7.38875V20.5531L28.2038 13.9573L21.6621 7.38875Z" fill="#6775B4"/>
<path d="M34.7992 7.38875H21.6621L28.2441 13.9441L34.7992 7.38875Z" fill="#7F88C0"/>
<path d="M34.7992 20.6068H21.6621L28.2441 27.1622L34.7992 20.6068Z" fill="#30519E"/>
<path d="M41.3421 0.779663H28.2051L34.7871 7.33499L41.3421 0.779663Z" fill="#DBDCE9"/>
<path d="M21.6617 20.5531V7.38875L15.0664 13.9845L21.6617 20.5531Z" fill="#4D61A8"/>
<path d="M21.6621 7.38874H34.7992L28.217 0.779663L21.6621 7.38874Z" fill="#AEB1D5"/>
<path d="M21.6621 20.6069H34.7992L28.217 13.9978L21.6621 20.6069Z" fill="#4D61A8"/>
<path d="M28.2051 27.2158H41.3421L34.7602 20.6068L28.2051 27.2158Z" fill="#0E4194"/>
<path d="M19.6784 35.3296V22.1651L13.1367 28.7608L19.6784 35.3296Z" fill="#8B3A64"/>
<path d="M6.54102 35.3296H19.6781L13.096 28.774L6.54102 35.3296Z" fill="#A03756"/>
<path d="M6.54102 22.1113H19.6781L13.096 15.556L6.54102 22.1113Z" fill="#3F418A"/>
<path d="M0 41.9385H13.137L6.55498 35.3832L0 41.9385Z" fill="#E30613"/>
<path d="M19.6797 22.1651V35.3296L26.2751 28.7336L19.6797 22.1651Z" fill="#5C417F"/>
<path d="M19.6781 35.3296H6.54102L13.1231 41.9385L19.6781 35.3296Z" fill="#C32737"/>
<path d="M19.6781 22.1113H6.54102L13.1231 28.7204L19.6781 22.1113Z" fill="#5C417F"/>
<path d="M13.137 15.5023H0L6.58206 22.1113L13.137 15.5023Z" fill="#0E4194"/>
</svg>
